<?xml version="1.0" encoding="utf-8"?>
<!-- Generator: Adobe Illustrator 27.5.0, SVG Export Plug-In . SVG Version: 6.00 Build 0)  -->
<svg version="1.1" id="Layer_1" xmlns="http://www.w3.org/2000/svg" xmlns:xlink="http://www.w3.org/1999/xlink" x="0px" y="0px"
	 viewBox="0 0 800 400" style="enable-background:new 0 0 800 400;" xml:space="preserve">
<style type="text/css">
	.st0{fill:#FFFFFF;}
	.st1{fill:#DA1A32;}
	.st2{fill:#00438C;}
</style>
<g>
	<path class="st0" d="M445.6,5h-91.3c-22.3,0-40.4,18.1-40.4,40.4v309.2c0,22.3,18,40.4,40.4,40.5h91.3
		c22.3-0.1,40.4-18.1,40.5-40.5V45.4C485.9,23.1,467.9,5.1,445.6,5"/>
	<path class="st1" d="M422.9,76.4v1.3c2.8,1.6,4.1,3,7,4.7c7.5,4.7,16.7,13,15.4,41.7c2.1,6.2,3,18.5,4.9,22.5
		c3.9,7.7,6.4,12.6,7.6,20c0,0,1.2,11.3,2.5,12.1c7.7,1.7,5.5,2.5,6.6,3.8c1,1.3,5.6,1.5,5.6,5.6c1.4,2,2.6,4.2,3.6,6.4V45.4
		c0-17-13.7-30.8-30.7-30.8h-29.5c4.7,1.7,7.4,3.7,9,6.8c3.8,0.3,8.4,8.9,1.3,21.5c3.1,2.1,0.7,5.2-1.6,8.9
		c-0.7,1.1-1.4,3.2-3.4,3.1c-2.6,5.6-5.9,11.2-8.4,11.5c-0.7,0.9-1.3,3.3-0.1,4.5C416.3,72.1,419.8,74,422.9,76.4 M476.4,214.9
		c-5.6,14.1-21.6,20.9-35.7,15.3c-14.1-5.6-20.9-21.6-15.3-35.7c3.3-8.2,10.3-14.3,18.9-16.5c-3.2-7.9-9.9-20.8-11.8-25.1
		c-2-4.3-6.4-30.4-7.4-35.5c-0.2-1.2-11.8,6.8-11.8,7.2c0,0.5-8.7,21.7-9.1,22.9c-0.3,1.1-0.2,3.6-0.2,3.6s3.9,0.5,6.2,7.4
		c2.3,6.9,9.1,32.1,9.1,32.1s-1.8,2-2,1.8c8.7,29.1,5.6,41.6,9.5,50.1c4.9,12.1,6.2,10.5,10.5,20.6c3,7.4,6.3,36.3,7.5,37.6
		c4.7,6,7.2,10.6,7.2,13.9c0,3.3-4,13.3-2.5,19.2c0.9,3.4,1.4,11,2.9,12.5c1.5,1.5,1.5,2.9,0.7,4.1c-0.3,0.5-0.5,1-0.5,1.6
		c2.6,9.1,10.9,24.7-2.6,32.9h0.3c15-2.3,26.1-15.3,26-30.5V214.9L476.4,214.9L476.4,214.9z"/>
	<path class="st2" d="M441.7,348.6c-4.9-4.4-1.6-6.3-1.8-8c-3.2-13.5-14-21.7-8.4-26.1c-1.4-4.5-4.1-10-4-10
		c-16.7-9.5-30.9-25.2-33.3-27.5c-2.4-2.3-7.9-6.4-8.9-9c-4-3.7-23.7-31.6-28.3-42l-8-1.1c-3.7-14.8-15.8-27.4-16.1-42.2
		c-0.1-5.6,2.5-17.7,3.6-20.1c1-2.4,5.6-6.4,5.6-6.4v-4c-17.5,0.5-12.4-1.3-15.4-8c-2.1-4.7-0.6-5.7,0.1-9
		c2.3-9.7,10.1-24.5,13.3-31.2c1-3.4,4.4-11.6,4.4-11.6c13-26.4,17.8-24.5,33.3-26l0.8-1.2c15.5-0.7,13-1.8,15.2-16.8
		c-2.3,0.9-2.9-4.7-2.9-4.7c-1.3-8.5,2.3-6.9,4-7c0.3-13.9,1.8-18.3,11.8-22.2h-52.4c-17,0-30.8,13.8-30.8,30.8v309.2
		c0,17,13.8,30.9,30.8,30.9h91.3C435.1,379.7,441.3,369,441.7,348.6L441.7,348.6z"/>
	<path class="st0" d="M371.6,366v-56h10.8c6.3,0,10.2,3.4,10.2,11.2v8.3c0,5.1-1.6,7.7-3.7,8.9c2.2,1.5,3.7,4,3.7,8.3v8.1
		c0,7.7-4.1,11.1-10.2,11.1L371.6,366L371.6,366z M379,341.7V359h2.8c2.6,0,3.2-1.4,3.2-4v-9.5c0-2.8-0.9-3.8-3.3-3.8L379,341.7
		L379,341.7z M379,317.1v18.5h2.8c2.6,0,3.3-0.9,3.3-4v-10.8c0-2.6-0.8-3.8-3.2-3.8L379,317.1L379,317.1z M410.2,354.6h-6.8
		l-0.9,11.4h-7.5l6.8-56h10.7l6.5,56H411L410.2,354.6z M406.8,316.3h-0.4c-0.5,6.8-1.4,18.6-1.7,22.3l-0.9,9.6h5.8l-0.9-9.6
		C408.5,334.8,407.4,323.1,406.8,316.3 M349.4,366h-6.5v-56h10.3l8.3,45.8c-0.7-11-1.6-24.2-1.6-35.5V310h6.5v56h-9.5l-8.3-44.8
		c0.5,10.4,0.7,18.6,0.7,27.2L349.4,366L349.4,366L349.4,366z"/>
</g>
</svg>
